# Created by 3DAce v2.72
mtllib takarabako.mtl

g
v -0.250000 0.460152 -0.211005
v 0.250000 0.460152 -0.211005
v -0.250000 0.460152 0.211005
v 0.250000 0.460152 0.211005
v -0.250000 0.000000 0.250000
v 0.250000 0.000000 0.250000
v -0.250000 0.000000 -0.250000
v 0.250000 0.000000 -0.250000
v 0.250000 0.250000 -0.250000
v 0.250000 0.250000 0.250000
v -0.250000 0.250000 -0.250000
v -0.250000 0.250000 0.250000
v 0.250000 0.500000 0.125000
v 0.250000 0.250000 0.125000
v -0.250000 0.500000 0.125000
v 0.250000 0.000000 0.125000
v -0.250000 0.250000 0.125000
v -0.250000 0.000000 0.125000
v 0.250000 0.500000 -0.125000
v 0.250000 0.250000 -0.125000
v -0.250000 0.500000 -0.125000
v 0.250000 0.000000 -0.125000
v -0.250000 0.250000 -0.125000
v -0.250000 0.000000 -0.125000
v 0.250000 0.375000 0.250000
v 0.250000 0.375000 0.125000
v -0.250000 0.375000 0.250000
v -0.250000 0.375000 0.125000
v 0.250000 0.375000 -0.125000
v 0.250000 0.375000 -0.250000
v -0.250000 0.375000 -0.125000
v -0.250000 0.375000 -0.250000
# 32 vertices

vt 0.508490 0.005120
vt 0.989230 0.005120
vt 0.992370 0.245480
vt 0.517330 0.245480
vt -0.002630 0.242140
vt -0.003210 0.005230
vt 0.495670 0.005230
vt 0.498150 0.244040
vt -0.003210 0.565590
vt -0.003210 0.456420
vt 0.493210 0.458320
vt 0.493210 0.567490
vt 0.507910 0.752570
vt 0.507910 0.513600
vt 0.628340 0.513600
vt 0.628340 0.752570
vt 0.992780 0.514420
vt 0.510520 0.514420
vt 0.510520 0.451400
vt 0.992780 0.451400
vt 0.869190 0.513600
vt 0.989620 0.513600
vt 0.989620 0.752570
vt 0.869190 0.752570
vt 0.479570 0.895020
vt -0.003210 0.893120
vt -0.003210 0.783940
vt 0.493210 0.785840
vt 0.869190 0.513600
vt 0.989620 0.513600
vt 0.989620 0.752570
vt 0.869190 0.752570
vt 0.510520 0.325360
vt 0.512420 0.262350
vt 0.992780 0.262350
vt 0.992780 0.325360
vt 0.507910 0.752570
vt 0.507910 0.513600
vt 0.628340 0.513600
vt 0.628340 0.752570
vt 0.628340 0.872050
vt 0.628340 0.996930
vt 0.554490 0.944120
vt 0.511710 0.868250
vt 0.507910 0.752570
vt 0.628340 0.752570
vt 0.628340 0.872050
vt 0.511710 0.868250
vt -0.003210 0.341760
vt -0.002630 0.242140
vt 0.498150 0.244040
vt 0.497570 0.343660
vt 0.497570 0.455840
vt -0.003210 0.453940
vt -0.003210 0.341760
vt 0.497570 0.343660
vt 0.869190 0.872050
vt 0.869190 0.752570
vt 0.989620 0.752570
vt 0.989620 0.872050
vt 0.942380 0.945470
vt 0.869190 0.996930
vt 0.869190 0.872050
vt 0.989620 0.872050
vt 0.989620 0.872050
vt 0.942380 0.945470
vt 0.869190 0.996930
vt 0.869190 0.872050
vt 0.869190 0.752570
vt 0.989620 0.752570
vt 0.989620 0.872050
vt 0.869190 0.872050
vt 0.497570 0.343660
vt 0.497570 0.455840
vt -0.003210 0.453940
vt -0.003210 0.341760
vt -0.002630 0.242140
vt 0.498150 0.244040
vt 0.497570 0.343660
vt -0.003210 0.341760
vt 0.511710 0.868250
vt 0.507910 0.752570
vt 0.628340 0.752570
vt 0.628340 0.872050
vt 0.628340 0.996930
vt 0.554490 0.944120
vt 0.511710 0.868250
vt 0.628340 0.872050
vt 0.493210 0.785840
vt -0.003210 0.783940
vt -0.003210 0.565590
vt 0.493210 0.567490
vt 0.869190 0.513600
vt 0.869190 0.752570
vt 0.628340 0.752570
vt 0.628340 0.513600
vt 0.510520 0.325360
vt 0.992780 0.325360
vt 0.992780 0.451400
vt 0.510520 0.451400
vt 0.628340 0.752570
vt 0.628340 0.513600
vt 0.869190 0.513600
vt 0.869190 0.752570
vt 0.869190 0.872050
vt 0.869190 0.996930
vt 0.628340 0.996930
vt 0.628340 0.872050
vt 0.869190 0.752570
vt 0.869190 0.872050
vt 0.628340 0.872050
vt 0.628340 0.752570
vt 0.628340 0.872050
vt 0.628340 0.752570
vt 0.869190 0.752570
vt 0.869190 0.872050
vt 0.628340 0.996930
vt 0.628340 0.872050
vt 0.869190 0.872050
vt 0.869190 0.996930
# 120 texture vertices

vn -0.000000 0.000000 -1.000000
vn -0.000000 0.000000 -1.000000
vn -0.000000 0.000000 -1.000000
vn -0.000000 0.000000 -1.000000
vn 0.000000 0.000000 1.000000
vn 0.000000 0.000000 1.000000
vn 0.000000 0.000000 1.000000
vn 0.000000 0.000000 1.000000
vn 0.000000 0.976561 0.215241
vn 0.000000 0.705537 0.708673
vn 0.000000 0.705537 0.708673
vn 0.000000 0.976561 0.215241
vn 1.000000 0.000000 0.000000
vn 1.000000 0.000000 0.000000
vn 1.000000 0.000000 0.000000
vn 1.000000 0.000000 0.000000
vn 0.000000 -1.000000 0.000000
vn 0.000000 -1.000000 0.000000
vn 0.000000 -1.000000 0.000000
vn 0.000000 -1.000000 0.000000
vn -1.000000 0.000000 0.000000
vn -1.000000 0.000000 0.000000
vn -1.000000 0.000000 0.000000
vn -1.000000 0.000000 0.000000
vn 0.000000 0.705537 -0.708673
vn 0.000000 0.705537 -0.708673
vn 0.000000 0.976561 -0.215241
vn 0.000000 0.976561 -0.215241
vn 1.000000 0.000000 0.000000
vn 1.000000 0.000000 0.000000
vn 1.000000 0.000000 0.000000
vn 1.000000 0.000000 0.000000
vn 0.000000 -1.000000 0.000000
vn 0.000000 -1.000000 -0.000000
vn 0.000000 -1.000000 -0.000000
vn 0.000000 -1.000000 0.000000
vn -1.000000 -0.000000 0.000000
vn -1.000000 -0.000000 0.000000
vn -1.000000 -0.000000 0.000000
vn -1.000000 -0.000000 0.000000
vn 1.000000 0.000000 0.000000
vn 1.000000 0.000000 0.000000
vn 1.000000 0.000000 0.000000
vn 1.000000 0.000000 0.000000
vn 1.000000 0.000000 0.000000
vn 1.000000 0.000000 0.000000
vn 1.000000 0.000000 0.000000
vn 1.000000 0.000000 0.000000
vn 0.000000 0.213075 0.977036
vn 0.000000 0.000000 1.000000
vn 0.000000 0.000000 1.000000
vn 0.000000 0.213075 0.977036
vn 0.000000 0.705537 0.708673
vn 0.000000 0.705537 0.708673
vn 0.000000 0.213075 0.977036
vn 0.000000 0.213075 0.977036
vn -1.000000 0.000000 0.000000
vn -1.000000 0.000000 0.000000
vn -1.000000 0.000000 0.000000
vn -1.000000 0.000000 0.000000
vn -1.000000 0.000000 0.000000
vn -1.000000 0.000000 0.000000
vn -1.000000 0.000000 0.000000
vn -1.000000 0.000000 0.000000
vn 1.000000 0.000000 0.000000
vn 1.000000 -0.000000 0.000000
vn 1.000000 -0.000000 0.000000
vn 1.000000 0.000000 0.000000
vn 1.000000 0.000000 0.000000
vn 1.000000 0.000000 0.000000
vn 1.000000 0.000000 0.000000
vn 1.000000 0.000000 0.000000
vn 0.000000 0.213075 -0.977036
vn 0.000000 0.705537 -0.708673
vn 0.000000 0.705537 -0.708673
vn 0.000000 0.213075 -0.977036
vn -0.000000 0.000000 -1.000000
vn -0.000000 0.000000 -1.000000
vn 0.000000 0.213075 -0.977036
vn 0.000000 0.213075 -0.977036
vn -1.000000 0.000000 0.000000
vn -1.000000 -0.000000 0.000000
vn -1.000000 -0.000000 0.000000
vn -1.000000 0.000000 0.000000
vn -1.000000 0.000000 0.000000
vn -1.000000 0.000000 0.000000
vn -1.000000 0.000000 0.000000
vn -1.000000 0.000000 0.000000
vn 0.000000 0.976561 -0.215241
vn 0.000000 0.976561 -0.215241
vn 0.000000 0.976561 0.215241
vn 0.000000 0.976561 0.215241
vn 1.000000 0.000000 0.000000
vn 1.000000 0.000000 0.000000
vn 1.000000 0.000000 0.000000
vn 1.000000 0.000000 0.000000
vn 0.000000 -1.000000 0.000000
vn 0.000000 -1.000000 0.000000
vn 0.000000 -1.000000 0.000000
vn 0.000000 -1.000000 0.000000
vn -1.000000 -0.000000 0.000000
vn -1.000000 -0.000000 0.000000
vn -1.000000 0.000000 0.000000
vn -1.000000 0.000000 0.000000
vn 1.000000 0.000000 0.000000
vn 1.000000 -0.000000 0.000000
vn 1.000000 0.000000 0.000000
vn 1.000000 0.000000 0.000000
vn 1.000000 0.000000 0.000000
vn 1.000000 0.000000 0.000000
vn 1.000000 0.000000 0.000000
vn 1.000000 0.000000 0.000000
vn -1.000000 0.000000 0.000000
vn -1.000000 -0.000000 0.000000
vn -1.000000 0.000000 0.000000
vn -1.000000 0.000000 0.000000
vn -1.000000 0.000000 0.000000
vn -1.000000 0.000000 0.000000
vn -1.000000 0.000000 0.000000
vn -1.000000 0.000000 0.000000
# 120 vertex normals

usemtl takarabako
f 8/1/1 7/2/2 11/3/3 9/4/4
f 12/5/5 5/6/6 6/7/7 10/8/8
f 15/9/9 3/10/10 4/11/11 13/12/12
f 10/13/13 6/14/14 16/15/15 14/16/16
f 6/17/17 5/18/18 18/19/19 16/20/20
f 18/21/21 5/22/22 12/23/23 17/24/24
f 2/25/25 1/26/26 21/27/27 19/28/28
f 22/29/29 8/30/30 9/31/31 20/32/32
f 24/33/33 7/34/34 8/35/35 22/36/36
f 11/37/37 7/38/38 24/39/39 23/40/40
f 26/41/41 13/42/42 4/43/43 25/44/44
f 10/45/45 14/46/46 26/47/47 25/48/48
f 27/49/49 12/50/50 10/51/51 25/52/52
f 4/53/53 3/54/54 27/55/55 25/56/56
f 28/57/57 17/58/58 12/59/59 27/60/60
f 3/61/61 15/62/62 28/63/63 27/64/64
f 30/65/65 2/66/66 19/67/67 29/68/68
f 20/69/69 9/70/70 30/71/71 29/72/72
f 32/73/73 1/74/74 2/75/75 30/76/76
f 9/77/77 11/78/78 32/79/79 30/80/80
f 32/81/81 11/82/82 23/83/83 31/84/84
f 21/85/85 1/86/86 32/87/87 31/88/88
f 19/89/89 21/90/90 15/91/91 13/92/92
f 22/93/93 20/94/94 14/95/95 16/96/96
f 24/97/97 22/98/98 16/99/99 18/100/100
f 23/101/101 24/102/102 18/103/103 17/104/104
f 29/105/105 19/106/106 13/107/107 26/108/108
f 20/109/109 29/110/110 26/111/111 14/112/112
f 31/113/113 23/114/114 17/115/115 28/116/116
f 21/117/117 31/118/118 28/119/119 15/120/120
# 30 elements

